HIERARCHY
ROOT Hips
{
	OFFSET 0.0000 0.0000 0.0000
	CHANNELS 6 Xposition Yposition Zposition Zrotation Xrotation Yrotation
	JOINT Spine1
	{
		OFFSET -0.0137 5.0038 -0.0537
		CHANNELS 3 Zrotation Xrotation Yrotation
		JOINT Spine2
		{
			OFFSET -0.0000 7.1253 -0.0298
			CHANNELS 3 Zrotation Xrotation Yrotation
			JOINT Chest
			{
				OFFSET -0.0000 7.5501 -0.8160
				CHANNELS 3 Zrotation Xrotation Yrotation
				JOINT Neck1
				{
					OFFSET -0.1817 26.3113 -0.5533
					CHANNELS 3 Zrotation Xrotation Yrotation
					JOINT Neck2
					{
						OFFSET -0.0000 7.7094 2.3026
						CHANNELS 3 Zrotation Xrotation Yrotation
						JOINT Head
						{
							OFFSET -0.0000 6.1289 1.9537
							CHANNELS 3 Zrotation Xrotation Yrotation
							JOINT Jaw
							{
								OFFSET 0.0026 0.4756 3.0949
								CHANNELS 3 Zrotation Xrotation Yrotation
								End Site
								{
									OFFSET 0.0 1.0 0.0
								}
							}
							JOINT LeftEye
							{
								OFFSET 3.2064 5.3802 7.5869
								CHANNELS 3 Zrotation Xrotation Yrotation
								End Site
								{
									OFFSET 0.0 1.0 0.0
								}
							}
							JOINT RightEye
							{
								OFFSET -3.2224 5.3619 7.5582
								CHANNELS 3 Zrotation Xrotation Yrotation
								End Site
								{
									OFFSET 0.0 1.0 0.0
								}
							}
						}
					}
				}
				JOINT LeftShoulder
				{
					OFFSET 1.6217 23.2372 5.1134
					CHANNELS 3 Zrotation Xrotation Yrotation
					JOINT LeftArm
					{
						OFFSET 14.9198 0.0000 -5.5023
						CHANNELS 3 Zrotation Xrotation Yrotation
						JOINT LeftForeArm
						{
							OFFSET 28.7393 0.0000 -0.0026
							CHANNELS 3 Zrotation Xrotation Yrotation
							JOINT LeftHand
							{
								OFFSET 27.0940 -0.0000 0.0026
								CHANNELS 3 Zrotation Xrotation Yrotation
								JOINT LeftHandThumbEnd
								{
									OFFSET 12.2686 -3.2202 4.8331
									CHANNELS 3 Zrotation Xrotation Yrotation
									End Site
									{
										OFFSET 0.0 1.0 0.0
									}
								}
								JOINT LeftHandMiddleEnd
								{
									OFFSET 19.0120 -0.3129 -0.0340
									CHANNELS 3 Zrotation Xrotation Yrotation
									End Site
									{
										OFFSET 0.0 1.0 0.0
									}
								}
							}
						}
					}
				}
				JOINT RightShoulder
				{
					OFFSET -1.3801 23.1803 5.2142
					CHANNELS 3 Zrotation Xrotation Yrotation
					JOINT RightArm
					{
						OFFSET -15.0372 0.0000 -5.5456
						CHANNELS 3 Zrotation Xrotation Yrotation
						JOINT RightForeArm
						{
							OFFSET -28.7366 0.0000 -0.0026
							CHANNELS 3 Zrotation Xrotation Yrotation
							JOINT RightHand
							{
								OFFSET -27.1336 -0.0000 0.0026
								CHANNELS 3 Zrotation Xrotation Yrotation
								JOINT RightHandThumbEnd
								{
									OFFSET -12.2642 -3.2115 4.8040
									CHANNELS 3 Zrotation Xrotation Yrotation
									End Site
									{
										OFFSET 0.0 1.0 0.0
									}
								}
								JOINT RightHandMiddleEnd
								{
									OFFSET -19.0006 -0.3066 -0.0316
									CHANNELS 3 Zrotation Xrotation Yrotation
									End Site
									{
										OFFSET 0.0 1.0 0.0
									}
								}
							}
						}
					}
				}
			}
		}
	}
	JOINT LeftLeg
	{
		OFFSET 10.0432 -8.4345 2.5957
		CHANNELS 3 Zrotation Xrotation Yrotation
		JOINT LeftShin
		{
			OFFSET -0.0000 -43.2218 -0.8029
			CHANNELS 3 Zrotation Xrotation Yrotation
			JOINT LeftFoot
			{
				OFFSET 0.0000 -42.1551 -3.4815
				CHANNELS 3 Zrotation Xrotation Yrotation
				JOINT LeftToeBase
				{
					OFFSET 0.0000 -5.0595 13.2315
					CHANNELS 3 Zrotation Xrotation Yrotation
					End Site
					{
						OFFSET 0.0 1.0 0.0
					}
				}
			}
		}
	}
	JOINT RightLeg
	{
		OFFSET -10.0473 -8.2953 2.6203
		CHANNELS 3 Zrotation Xrotation Yrotation
		JOINT RightShin
		{
			OFFSET 0.0000 -43.3622 -0.8056
			CHANNELS 3 Zrotation Xrotation Yrotation
			JOINT RightFoot
			{
				OFFSET 0.0000 -42.1174 -3.4784
				CHANNELS 3 Zrotation Xrotation Yrotation
				JOINT RightToeBase
				{
					OFFSET -0.0000 -5.0796 13.2842
					CHANNELS 3 Zrotation Xrotation Yrotation
					End Site
					{
						OFFSET 0.0 1.0 0.0
					}
				}
			}
		}
	}
}
MOTION
Frames: 8
Frame Time: 0.033333
-1.6119 94.1770 2.5013 0.5773 2.6665 0.2618 -1.2519 2.7564 0.3700 -0.8500 -3.7417 0.8976 -1.2038 22.6165 -1.1372 -10.2551 13.9400 5.8708 1.5637 -3.8288 6.3283 -1.5953 -12.5702 8.1351 0.0624 -0.0324 -0.1085 0.7718 -10.3586 -3.9016 -0.6601 -10.3470 3.6823 -5.1160 14.5196 -7.7866 -29.7446 -28.3342 2.9210 0.9494 0.0591 -89.4633 12.1371 -8.7139 -6.9821 -15.3388 11.1359 15.9911 -60.5411 1.9588 2.0167 9.6187 17.2995 20.9499 43.3925 -18.3560 7.3074 0.0830 0.0831 105.4042 -24.7751 -14.5432 11.0266 14.8293 7.8860 -15.9922 50.0330 -3.4070 -4.7811 13.0736 -30.4182 11.4559 -0.3504 23.6345 -0.9146 -15.6157 3.5680 -7.5932 1.5939 0.1420 -1.7102 -20.7355 0.3396 -1.3475 -0.1398 11.0822 0.6101 23.7729 -9.1405 -10.3461 -1.4301 -0.1628 1.1971
-1.1638 94.3359 2.5787 1.2021 3.3049 0.4569 -1.5190 2.6584 0.3343 -0.8507 -3.7677 1.0459 -1.6059 22.4286 -1.1561 -10.4676 13.8062 5.9287 1.4617 -3.8569 6.2511 -1.5864 -12.4181 7.8411 0.0410 -0.0459 -0.0652 0.7404 -10.3570 -3.8614 -0.6723 -10.3450 3.7347 -5.0922 14.4384 -7.8268 -28.4330 -28.2906 2.0313 1.0946 -0.0535 -89.2097 11.9484 -8.7832 -7.1212 -15.2934 11.0753 15.9075 -60.8022 1.9500 1.9335 9.2860 17.3404 21.0051 43.4823 -18.5242 7.2385 -0.0376 0.1791 104.9433 -24.8721 -14.5564 10.9659 14.9393 7.8538 -16.1184 50.0830 -3.3935 -4.7959 11.8496 -30.6740 11.7665 -0.3834 23.3459 -0.9343 -15.4241 3.3860 -7.5251 1.5952 0.0981 -1.7399 -21.6468 -0.0379 -1.7379 -0.1716 10.3034 0.6137 23.8821 -8.3104 -10.4362 -1.4389 -0.3065 1.1390
-0.7156 94.4011 2.6872 1.8662 3.9404 0.7048 -1.8221 2.5750 0.3449 -0.8671 -3.7882 1.1297 -1.9374 22.3191 -1.1138 -10.6394 13.6830 6.0194 1.3736 -3.8771 6.0877 -1.6938 -12.3364 7.6195 0.0388 -0.0426 -0.0592 0.7293 -10.3597 -3.8561 -0.6652 -10.3459 3.7386 -5.0611 14.3480 -7.9090 -27.1208 -28.1145 1.1873 1.2572 -0.1492 -89.2455 11.7716 -9.2407 -7.3342 -15.2594 11.0310 15.8286 -61.0393 1.9606 1.8571 9.0372 17.3322 21.1067 43.4155 -18.5372 7.1794 -0.1583 0.1554 104.6575 -25.0355 -14.3305 10.8609 15.0431 7.8200 -16.1856 50.1014 -3.3818 -4.8268 10.6099 -31.0385 11.8451 -0.3871 23.3299 -0.9289 -15.1401 3.1233 -7.3141 1.6017 0.1463 -1.7686 -22.6550 -0.5364 -2.2149 -0.1844 9.8075 0.6093 24.1364 -7.7808 -10.3938 -1.4432 -0.3600 1.0983
-0.2138 94.3852 2.8075 2.4467 4.5123 0.9157 -2.0944 2.5271 0.3701 -0.8834 -3.8183 1.2134 -2.1800 22.3078 -1.0292 -10.7896 13.5740 6.0960 1.2693 -3.8879 5.9470 -1.8078 -12.4081 7.4416 0.0407 -0.0361 -0.0577 0.7288 -10.3670 -3.8563 -0.6614 -10.3510 3.7399 -5.0283 14.3014 -7.9658 -25.8755 -27.9331 0.3659 1.3838 -0.2697 -89.4309 11.6494 -9.7023 -7.6173 -15.2114 10.9940 15.7545 -61.1801 1.9524 1.8123 8.8868 17.3293 21.2412 43.1683 -18.4663 7.2335 -0.2553 0.1012 104.4692 -25.0902 -14.0234 10.6733 15.1183 7.7778 -16.2080 50.1262 -3.4098 -4.8516 9.5075 -31.5251 11.8097 -0.3748 23.6899 -0.9018 -14.8721 2.7974 -7.0455 1.6008 0.2146 -1.7878 -23.6023 -1.0288 -2.6358 -0.1967 9.4323 0.6064 24.5148 -7.4408 -10.3157 -1.4447 -0.4013 1.0859
0.2815 94.3039 2.9493 2.9752 5.0057 1.0825 -2.3559 2.5578 0.4187 -0.8989 -3.8349 1.2675 -2.3840 22.3572 -0.8963 -10.8565 13.4262 6.1546 1.1800 -3.8773 5.8146 -1.8666 -12.5694 7.3114 0.0366 -0.0275 -0.0457 0.7245 -10.3616 -3.8389 -0.6660 -10.3400 3.7482 -4.8696 14.2470 -7.9332 -24.7685 -27.8655 -0.3957 1.4826 -0.3873 -89.7271 11.6303 -10.3929 -7.9312 -15.2029 10.9585 15.6731 -61.2441 1.9496 1.7511 8.7235 17.3357 21.3876 42.9829 -18.3681 7.3688 -0.3595 0.0446 104.3388 -25.0320 -13.7941 10.4476 15.1331 7.7493 -16.1943 50.1155 -3.4121 -4.8749 8.4814 -32.1225 11.7630 -0.3716 24.4152 -0.8888 -14.5547 2.3715 -6.6989 1.6008 0.3303 -1.8126 -24.5298 -1.5269 -2.9646 -0.2006 9.2457 0.6062 24.9950 -7.2427 -10.2254 -1.4444 -0.3838 1.0858
0.7761 94.1642 3.0978 3.4004 5.4530 1.1965 -2.5865 2.6302 0.4500 -0.9282 -3.8189 1.3561 -2.5185 22.4338 -0.7621 -10.8226 13.2769 6.1739 1.0785 -3.8551 5.7027 -1.8917 -12.7619 7.2209 0.0298 -0.0177 -0.0322 0.7214 -10.3579 -3.8218 -0.6773 -10.3352 3.7607 -4.5273 14.1833 -7.8133 -23.9771 -27.9995 -1.0028 1.5427 -0.4056 -90.0884 11.6596 -11.2267 -8.2264 -15.1339 10.9415 15.6244 -61.2368 1.9636 1.7094 8.5498 17.3648 21.5286 42.9171 -18.2667 7.5739 -0.4295 0.0204 104.1816 -24.9754 -13.5165 10.1992 15.1527 7.7001 -16.1669 50.1075 -3.4365 -4.9022 7.5945 -32.8788 11.7146 -0.3604 25.4717 -0.8594 -14.1690 1.8119 -6.3273 1.6003 0.4825 -1.8342 -25.3657 -2.0323 -3.1964 -0.1907 9.1985 0.6173 25.5054 -7.1311 -10.1158 -1.4429 -0.3672 1.0911
1.2291 94.0171 3.2594 3.6966 5.8605 1.2329 -2.7921 2.7462 0.4869 -0.9589 -3.7758 1.4526 -2.5880 22.4867 -0.6051 -10.7261 13.1743 6.1737 0.9901 -3.8433 5.5989 -1.8601 -12.9481 7.1659 0.0216 -0.0158 -0.0156 0.7138 -10.3592 -3.8024 -0.6875 -10.3343 3.7804 -4.0124 14.1239 -7.6411 -23.4935 -28.2081 -1.4427 1.5825 -0.3724 -90.4908 11.7708 -12.0242 -8.4601 -15.0804 10.9205 15.5570 -61.2191 1.9674 1.6653 8.3635 17.4346 21.6777 43.0438 -18.0727 7.7945 -0.3874 0.0244 103.9734 -24.9728 -13.1855 9.9850 15.1484 7.6465 -16.1019 50.1188 -3.4319 -4.9120 6.8825 -33.6952 11.7072 -0.3694 26.6976 -0.8538 -13.7594 1.1981 -5.9122 1.6000 0.5880 -1.8559 -26.0481 -2.4946 -3.3063 -0.1822 9.2161 0.6399 25.9265 -7.0436 -9.9773 -1.4412 -0.4373 1.0908
1.6720 93.8712 3.4013 3.8846 6.2286 1.2371 -2.9886 2.9129 0.4967 -0.9976 -3.7007 1.5670 -2.6058 22.5285 -0.4274 -10.5186 13.1497 6.1293 0.9089 -3.8266 5.5121 -1.8258 -13.1310 7.1482 0.0119 -0.0101 -0.0006 0.7019 -10.3632 -3.7882 -0.6948 -10.3366 3.7981 -3.3064 14.0786 -7.4468 -23.2954 -28.4122 -1.7706 1.6934 -0.3120 -90.9210 11.9960 -12.9561 -8.7129 -15.0085 10.9168 15.4976 -61.1764 1.9651 1.6724 8.1140 17.5245 21.7952 43.4134 -17.7437 8.1352 -0.3355 0.0486 103.7073 -24.8941 -12.8175 9.7215 15.1439 7.5871 -16.0460 50.1423 -3.4321 -4.9033 6.3299 -34.5018 11.6907 -0.3931 27.9143 -0.8665 -13.4053 0.6253 -5.4691 1.5985 0.7117 -1.8645 -26.5930 -2.9266 -3.3991 -0.1799 9.2789 0.6943 26.2477 -6.9421 -9.8068 -1.4373 -0.5369 1.0792
